{"title":"Leningrad.2009.SWESUB.DVDRip.XviD.AC3.(5.1)-Zen_Bud","uid":5724040,"size":1471775044,"categoryP":"video","categoryS":"movies","magnet":"?xt=urn:btih:369ca817f7f78b8aedc11e6c7eac43274d7692d2&amp;dn=Leningrad.2009.SWESUB.DVDRip.XviD.AC3.%285.1%29-Zen_Bud&amp;tr=udp%3A%2F%2Ftracker.openbittorrent.com%3A80&amp;tr=udp%3A%2F%2Fopen.demonii.com%3A1337&amp;tr=udp%3A%2F%2Ftracker.coppersurfer.tk%3A6969&amp;tr=udp%3A%2F%2Fexodus.desync.com%3A6969","seeders":1,"leechers":0,"uploader":null,"files":1,"time":1280392492,"description":"General\nComplete name                    : Leningrad.2009.SWESUB.DVDRip.XviD.AC3.(5.1)-Zen_Bud\nFormat                           : AVI\nFormat/Info                      : Audio Video Interleave\nFile size                        : 1.37 GiB\nDuration                         : 1h 45mn\nOverall bit rate                 : 1 853 Kbps\n\nVideo\n\nFormat                           : MPEG-4 Visual\nCodec ID/Hint                    : XviD\nDuration                         : 1h 45mn\nBit rate                         : 1 394 Kbps\nWidth                            : 698 pixels\nHeight                           : 434 pixels\nDisplay aspect ratio             : 2.25:1\nStream size                      : 1.03 GiB (75%)\nWriting library                  : XviD 1.1.2 (UTC 2006-11-01)\n\nAudio\n\nFormat                           : AC-3\nDuration                         : 1h 45mn\nBit rate                         : 448 Kbps\nChannel(s)                       : 6 channels\nChannel positions                : Front: L C R, Side: L R, LFE\nSampling rate                    : 48.0 KHz\nStream size                      : 339 MiB (24%)","torrent":{"xt":"urn:btih:369ca817f7f78b8aedc11e6c7eac43274d7692d2","amp;dn":"Leningrad.2009.SWESUB.DVDRip.XviD.AC3.%285.1%29-Zen_Bud","amp;tr":["udp%3A%2F%2Ftracker.openbittorrent.com%3A80","udp%3A%2F%2Fopen.demonii.com%3A1337","udp%3A%2F%2Ftracker.coppersurfer.tk%3A6969","udp%3A%2F%2Fexodus.desync.com%3A6969"],"infoHash":"369ca817f7f78b8aedc11e6c7eac43274d7692d2","infoHashBuffer":{"type":"Buffer","data":[54,156,168,23,247,247,139,138,237,193,30,108,126,172,67,39,77,118,146,210]},"announce":[],"urlList":[]}}